<svg xmlns="http://www.w3.org/2000/svg" xmlns:xlink="http://www.w3.org/1999/xlink" xmlns:serif="http://www.serif.com/" viewBox="0 0 48 60" version="1.1" xml:space="preserve" style="" x="0px" y="0px" fill-rule="evenodd" clip-rule="evenodd" stroke-linejoin="round" stroke-miterlimit="2"><g><path d="M20.178,8.886l-3.19,-0.855c-1.599,-0.429 -3.245,0.522 -3.674,2.121l-1.012,3.776l-3.302,0c-1.656,0 -3,1.344 -3,3c0,0 0,24 0,24c0,1.656 1.344,3 3,3l16,0c1.656,0 3,-1.344 3,-3l0,-0.582l0.949,-3.54l12.227,-20.29c0.003,-0.005 0.007,-0.011 0.01,-0.016c0.828,-1.434 0.335,-3.27 -1.098,-4.098c-0,-0 -13.857,-8 -13.857,-8c-1.434,-0.828 -3.27,-0.336 -4.098,1.098l-1.955,3.386Zm-2.664,13.257c-0.316,-0.191 -0.712,-0.191 -1.028,-0l-5,3c-0.302,0.18 -0.486,0.506 -0.486,0.857l-0,6c-0,0.351 0.184,0.677 0.486,0.857l5,3c0.316,0.191 0.712,0.191 1.028,0l5,-3c0.302,-0.18 0.486,-0.506 0.486,-0.857l-0,-6c0,-0.351 -0.184,-0.677 -0.486,-0.857l-5,-3Zm-0.514,2.023l4,2.4c-0,0 -0,4.868 -0,4.868c-0,-0 -4,2.4 -4,2.4c-0,-0 -4,-2.4 -4,-2.4c-0,-0 -0,-4.868 -0,-4.868l4,-2.4Zm3.387,-13.154l-3.916,-1.049c-0.533,-0.143 -1.082,0.174 -1.225,0.707l-0.873,3.258l10.627,0c1.656,0 3,1.344 3,3l-0,15.69l4.633,-17.289c0.143,-0.534 -0.174,-1.082 -0.707,-1.225l-11.507,-3.083c-0.01,-0.003 -0.021,-0.006 -0.032,-0.009Zm10.431,18.817c3.624,-6.014 8.641,-14.339 8.645,-14.345c0.263,-0.475 0.097,-1.077 -0.375,-1.35c-0,0 -13.857,-8 -13.857,-8c-0.478,-0.276 -1.09,-0.112 -1.366,0.366l-1.687,2.921l10.265,2.751c1.6,0.428 2.55,2.075 2.122,3.674l-3.747,13.983Z"/></g><text x="0" y="63" fill="#000000" font-size="5px" font-weight="bold" font-family="'Helvetica Neue', Helvetica, Arial-Unicode, Arial, Sans-serif">Created by Ardiansyah</text><text x="0" y="68" fill="#000000" font-size="5px" font-weight="bold" font-family="'Helvetica Neue', Helvetica, Arial-Unicode, Arial, Sans-serif">from the Noun Project</text></svg>